<?xml version="1.0" encoding="UTF-8" standalone="no"?>
<svg
   xmlns:dc="http://purl.org/dc/elements/1.1/"
   xmlns:cc="http://creativecommons.org/ns#"
   xmlns:rdf="http://www.w3.org/1999/02/22-rdf-syntax-ns#"
   xmlns:svg="http://www.w3.org/2000/svg"
   xmlns="http://www.w3.org/2000/svg"
   id="svg6373"
   version="1.1"
   viewBox="0 0 432 190"
   height="190mm"
   width="432mm">
  <defs
     id="defs6367" />
  <metadata
     id="metadata6370">
    <rdf:RDF>
      <cc:Work
         rdf:about="">
        <dc:format>image/svg+xml</dc:format>
        <dc:type
           rdf:resource="http://purl.org/dc/dcmitype/StillImage" />
        <dc:title></dc:title>
      </cc:Work>
    </rdf:RDF>
  </metadata>
  <g
     transform="translate(0,-107)"
     id="layer1">
    <path
       id="path6059-6-0"
       d="m 3.2266481,175.21261 78.2207319,-56.1596 59.52434,81.94855 -38.86463,64.17372 z"
       style="display:inline;fill:#df2020;fill-opacity:1;stroke:#000000;stroke-width:1.45520818;stroke-linecap:butt;stroke-linejoin:miter;stroke-miterlimit:4;stroke-dasharray:none;stroke-opacity:1" />
    <path
       id="path6061-7-1"
       d="m 68.963876,118.6386 85.744474,0.0514 32.16674,90.87405 -84.13486,18.60849 z"
       style="display:inline;fill:#28b828;fill-opacity:1;stroke:#000000;stroke-width:1.45520818;stroke-linecap:butt;stroke-linejoin:miter;stroke-miterlimit:4;stroke-dasharray:none;stroke-opacity:1" />
    <path
       id="path6063-8-2"
       d="m 146.40915,113.76106 -27.20989,91.70088 64.91726,56.87334 35.58663,-103.68943 z"
       style="display:inline;fill:#1883c8;fill-opacity:1;stroke:#000000;stroke-width:1.45520818;stroke-linecap:butt;stroke-linejoin:miter;stroke-miterlimit:4;stroke-dasharray:none;stroke-opacity:1" />
    <path
       id="path4345-8-6-8-7-4-4"
       d="m 201.73161,291.99475 -161.898402,-0.17515 0.91835,-4.37081 3.36725,-6.3069 3.21417,-3.71946 c 0.755188,-0.71169 1.520586,-1.41255 2.29588,-2.10228 1.053403,-0.93715 2.125074,-1.85377 3.2142,-2.74915 l 2.4489,-1.77888 c 1.157264,-0.67561 2.331162,-1.32273 3.52027,-1.94058 0.859572,-0.44662 1.727092,-0.87795 2.60201,-1.29371 0.285115,-2.42831 0.591237,-4.85416 0.91832,-7.27718 0.335145,-2.48273 0.692297,-4.9625 1.0714,-7.4389 l 1.68359,-5.49831 1.377531,-3.2343 2.295851,-1.94061 2.601946,-2.74913 4.20909,-2.42575 3.214201,-1.21285 2.908075,-0.24257 3.061123,0.24257 2.601947,0.48516 1.147937,-0.9703 2.219312,-1.05114 1.836703,-0.72774 0.918321,-0.16171 2.21931,-1.94056 c 0.596276,-0.41805 1.183195,-0.84944 1.76017,-1.29374 0.677247,-0.52152 1.340792,-1.06083 1.98972,-1.61719 l 1.377525,-4.36628 0.84181,-6.14514 c 0.18893,-2.47597 0.31652,-4.95661 0.38261,-7.4389 0.0782,-2.9371 0.0703,-5.87619 0,-8.81349 -0.0478,-1.99546 -0.12428,-3.99023 -0.22956,-5.98348 l 0.38261,-1.2937 0.99489,-0.48514 -0.38264,-7.51976 0.68877,-3.71946 c 0.42327,-1.19954 0.80621,-2.41331 1.14794,-3.63858 0.28359,-1.01681 0.53882,-2.04154 0.76527,-3.07258 l -0.30613,-3.96203 0.0765,-2.42573 0.76525,-2.91087 0.38266,-2.18315 4.66824,-3.31519 5.20389,-4.60885 4.36215,-3.31518 1.83667,-0.80863 3.59684,4.60898 3.74986,1.69796 4.89782,0.48516 c 1.50805,-0.19403 3.01332,-0.40968 4.51519,-0.64685 1.55998,-0.24635 3.11629,-0.51592 4.66824,-0.80859 l 4.59167,0.24259 2.52543,2.4257 0.38264,2.74919 c -0.26932,1.28624 -0.49904,2.58078 -0.68874,3.88115 -0.19581,1.3423 -0.34897,2.69083 -0.45917,4.04286 l -0.68876,3.6386 0.38266,3.2343 2.06621,1.61716 2.2959,0.80859 1.6836,0.40426 -0.91835,1.94062 0.4592,0.72771 1.30096,1.53627 0.7653,2.26405 -0.0765,2.54696 -0.30612,1.09161 -1.14794,1.81929 -2.37236,3.15344 -2.44893,2.30443 c -0.38499,0.1137 -0.76774,0.23502 -1.14794,0.36384 -0.23053,0.0781 -0.46013,0.15899 -0.68873,0.2426 -0.12028,1.979 -0.19684,3.96065 -0.22959,5.94303 -0.0245,1.48226 -0.0245,2.96492 0,4.44718 0.004,0.26797 0.0148,0.53755 0.073,0.79916 0.0582,0.2616 0.162,0.51344 0.3096,0.73714 l 1.14793,1.61711 3.5203,2.42575 6.65796,3.71944 4.20906,1.13202 1.76014,0.24257 c 1.69148,0.81956 3.37521,1.65514 5.05087,2.50659 1.71772,0.87281 3.42696,1.7623 5.12741,2.66829 l 4.13253,2.83001 1.91321,1.61714 c 1.30222,1.6701 2.60319,3.34117 3.90293,5.0132 0.8168,1.05076 1.63311,2.10191 2.44893,3.15343 l 3.5203,5.3366 2.67846,6.63033 c 1.20674,3.5384 2.35489,7.09678 3.44381,10.67319 0.72697,2.38762 1.42762,4.78358 2.06627,7.19633 0.58867,2.22393 1.12456,4.46184 1.60708,6.71119 l 0.91835,6.95373 0.15302,3.15346 -0.15302,2.74913 -0.68876,3.15349 z"
       style="display:inline;fill:#f4c43c;fill-opacity:1;fill-rule:evenodd;stroke:none;stroke-width:1.45520818;stroke-linecap:butt;stroke-linejoin:miter;stroke-miterlimit:4;stroke-dasharray:none;stroke-opacity:1" />
    <path
       id="path5235-9-4-4-6-9-7"
       d="m 39.907038,292.2024 c 0,0 0.23185,-14.64654 21.64546,-24.74253 0.68167,-7.21527 1.07537,-16.40637 5.040682,-23.10604 6.496841,-6.95212 11.664611,-10.96989 20.663323,-8.0542 3.074866,-2.88355 4.735065,-2.49292 6.223082,-2.94456 1.15373,-1.52795 5.93722,-5.1415 5.98749,-5.12756 0,0 -0.49248,9.36679 0.234779,19.21425 -16.002481,17.15229 -36.896576,24.36346 -36.896576,24.36346"
       style="display:inline;fill:none;fill-rule:evenodd;stroke:#000000;stroke-width:1.45520818;stroke-linecap:butt;stroke-linejoin:miter;stroke-miterlimit:4;stroke-dasharray:none;stroke-opacity:1" />
    <path
       id="path4197-9-3-8-2-1-2"
       d="m 89.649069,291.9749 24.657781,-40.21291 -0.21646,-16.23768 c 0,0 -1.50501,-1.66858 -1.68396,-3.66513 -0.67336,-4.85361 -1.12994,-5.36855 -1.12994,-5.36855 0,0 0.0853,-2.19828 -0.0812,-3.60197 -0.81932,-0.65532 -1.65047,-1.77244 -1.65047,-1.77244 0,0 -0.8746,-14.23416 -1.36734,-18.31442 -0.96635,-1.55408 -2.89915,-1.20303 -3.36761,-0.61045 -0.2916,5.50737 -0.21531,12.17358 -0.44741,17.18164 -0.55745,2.56387 -0.50286,3.74145 -0.50286,3.74145"
       style="display:inline;fill:none;fill-rule:evenodd;stroke:#000000;stroke-width:1.45520818;stroke-linecap:butt;stroke-linejoin:miter;stroke-miterlimit:4;stroke-dasharray:none;stroke-opacity:1" />
    <path
       id="path4204-8-8-9-4-2-4"
       d="m 102.88179,224.87722 c -0.37127,0.33387 -0.64639,0.77346 -0.78441,1.25332 -0.12427,0.43208 -0.13758,0.89558 -0.0383,1.33407"
       style="display:inline;fill:none;fill-rule:evenodd;stroke:#000000;stroke-width:1.45520818;stroke-linecap:butt;stroke-linejoin:miter;stroke-miterlimit:4;stroke-dasharray:none;stroke-opacity:1" />
    <path
       id="path4208-1-9-2-4-2-2"
       d="m 99.432025,228.48115 c 0,0 2.360075,-5.64786 2.378365,-12.88232 0.72184,-7.00027 -0.34378,-20.12659 0.39032,-21.16447 0.97197,-0.91067 2.49648,-0.42254 3.12998,0.36385 0.64276,2.04475 0.89922,6.93352 0.89922,6.93352"
       style="display:inline;fill:none;fill-rule:evenodd;stroke:#000000;stroke-width:1.45520818;stroke-linecap:butt;stroke-linejoin:miter;stroke-miterlimit:4;stroke-dasharray:none;stroke-opacity:1" />
    <path
       id="path4212-3-5-2-0-0-6"
       d="m 114.12872,236.19264 c 0,0 2.25726,-6.1674 3.94394,-26.21345 1.50277,-6.6476 3.74757,-5.20175 4.09425,-4.9727 0.79059,-0.27878 0.3444,20.86122 0.3444,20.86122"
       style="display:inline;fill:none;fill-rule:evenodd;stroke:#000000;stroke-width:1.45520818;stroke-linecap:butt;stroke-linejoin:miter;stroke-miterlimit:4;stroke-dasharray:none;stroke-opacity:1" />
    <path
       id="path4216-4-4-0-9-7-1"
       d="m 127.94479,222.26958 c 0,0 0.30545,-22.48417 0.4592,-25.9553 -0.0763,-0.6917 -1.96917,-2.20806 -4.2856,1.77887 -1.32006,3.64535 -1.37749,13.66492 -1.37749,13.66492"
       style="display:inline;fill:none;fill-rule:evenodd;stroke:#000000;stroke-width:1.45520818;stroke-linecap:butt;stroke-linejoin:miter;stroke-miterlimit:4;stroke-dasharray:none;stroke-opacity:1" />
    <path
       id="path4220-6-5-4-5-5-9"
       d="m 128.29875,203.43048 c 0,0 -0.74949,-8.64969 3.7769,-9.64983 2.7183,0.13601 2.68616,2.97906 2.68616,2.97906 0,0 -0.65493,6.26316 -1.07569,10.53693 -0.48754,6.01156 0.26402,14.44851 0.26402,14.44851"
       style="display:inline;fill:none;fill-rule:evenodd;stroke:#000000;stroke-width:1.45520818;stroke-linecap:butt;stroke-linejoin:miter;stroke-miterlimit:4;stroke-dasharray:none;stroke-opacity:1" />
    <path
       id="path4224-5-2-7-5-5-4"
       d="m 180.13715,280.00185 c 0,0 -6.95429,-2.65029 -11.86891,-3.8641 -4.68822,-1.15781 -16.8935,-3.27821 -16.8935,-3.27821 0,0 -5.66782,-7.88159 -8.84259,-11.42599 -2.7338,-3.47161 -5.5602,-5.63428 -7.39151,-7.0987 -0.30658,-0.64017 -0.44606,-2.03342 -0.37883,-3.20176 0.71416,-1.64665 3.0747,-4.27739 3.76092,-6.86105 1.18725,-5.3421 0.29763,-16.52357 0.29763,-16.52357 l -1.39039,-11.71194 -0.84272,-13.90783 c 0,0 -0.23238,-1.18054 -1.21584,-0.99362 -0.94756,0.18006 -1.15127,1.90049 -1.15127,1.90049"
       style="display:inline;fill:none;fill-rule:evenodd;stroke:#000000;stroke-width:1.45520818;stroke-linecap:butt;stroke-linejoin:miter;stroke-miterlimit:4;stroke-dasharray:none;stroke-opacity:1" />
    <path
       id="path4228-3-0-1-4-5-6"
       d="m 133.53138,229.14248 0.11481,2.99169"
       style="display:inline;fill:none;fill-rule:evenodd;stroke:#000000;stroke-width:1.45520818;stroke-linecap:butt;stroke-linejoin:miter;stroke-miterlimit:4;stroke-dasharray:none;stroke-opacity:1" />
    <path
       id="path4232-3-9-6-7-4-9"
       d="m 127.40908,229.2233 0.22961,2.18316"
       style="display:inline;fill:none;fill-rule:evenodd;stroke:#000000;stroke-width:1.45520818;stroke-linecap:butt;stroke-linejoin:miter;stroke-miterlimit:4;stroke-dasharray:none;stroke-opacity:1" />
    <path
       id="path4236-2-7-4-4-0-3"
       d="m 121.72687,229.9106 -1.09051,0.16169"
       style="display:inline;fill:none;fill-rule:evenodd;stroke:#000000;stroke-width:1.45520818;stroke-linecap:butt;stroke-linejoin:miter;stroke-miterlimit:4;stroke-dasharray:none;stroke-opacity:1" />
    <path
       id="path4240-5-1-8-0-6-8"
       d="m 120.71287,217.82237 -1.33925,0.24257"
       style="display:inline;fill:none;fill-rule:evenodd;stroke:#000000;stroke-width:1.45520818;stroke-linecap:butt;stroke-linejoin:miter;stroke-miterlimit:4;stroke-dasharray:none;stroke-opacity:1" />
    <path
       id="path4244-3-9-8-3-9-4"
       d="m 127.06474,212.34427 -1.00387,0.24017 -0.79457,-0.11887"
       style="display:inline;fill:none;fill-rule:evenodd;stroke:#000000;stroke-width:1.45520818;stroke-linecap:butt;stroke-linejoin:miter;stroke-miterlimit:4;stroke-dasharray:none;stroke-opacity:1" />
    <path
       id="path4248-5-6-3-9-9-9"
       d="m 131.88602,210.50481 c -0.29113,0.2588 -0.63211,0.4613 -0.99867,0.59309 -0.38946,0.14002 -0.80752,0.19998 -1.22064,0.17506"
       style="display:inline;fill:none;fill-rule:evenodd;stroke:#000000;stroke-width:1.45520818;stroke-linecap:butt;stroke-linejoin:miter;stroke-miterlimit:4;stroke-dasharray:none;stroke-opacity:1" />
    <path
       id="path4252-8-9-0-7-3-5"
       d="m 135.94201,207.16942 c 0,0 -0.37223,0.27595 -0.58361,0.35656 -0.19163,0.0731 -0.60257,0.10837 -0.60257,0.10837"
       style="display:inline;fill:none;fill-rule:evenodd;stroke:#000000;stroke-width:1.45520818;stroke-linecap:butt;stroke-linejoin:miter;stroke-miterlimit:4;stroke-dasharray:none;stroke-opacity:1" />
    <path
       id="path4256-7-2-0-9-6-3"
       d="m 136.49686,213.77951 c 0,0 -0.48218,0.35287 -0.74041,0.4427 -0.24692,0.0859 -0.96235,0.26481 -0.96235,0.26481"
       style="display:inline;fill:none;fill-rule:evenodd;stroke:#000000;stroke-width:1.45520818;stroke-linecap:butt;stroke-linejoin:miter;stroke-miterlimit:4;stroke-dasharray:none;stroke-opacity:1" />
    <path
       id="path4260-8-1-1-4-4-1"
       d="m 121.49731,211.15166 c -0.22393,0.14722 -0.49932,0.21443 -0.76589,0.18691 -0.16076,-0.0166 -0.31796,-0.0668 -0.45856,-0.1465"
       style="display:inline;fill:none;fill-rule:evenodd;stroke:#000000;stroke-width:1.45520818;stroke-linecap:butt;stroke-linejoin:miter;stroke-miterlimit:4;stroke-dasharray:none;stroke-opacity:1" />
    <path
       id="path4264-2-3-9-0-3-7"
       d="m 122.35823,208.54398 c -0.64112,0.0203 -1.45297,0.0353 -1.85733,-0.25019 -0.41614,-0.29377 -0.41428,-0.89535 -0.32374,-1.36692"
       style="display:inline;fill:none;fill-rule:evenodd;stroke:#000000;stroke-width:1.45520818;stroke-linecap:butt;stroke-linejoin:miter;stroke-miterlimit:4;stroke-dasharray:none;stroke-opacity:1" />
    <path
       id="path4268-1-4-1-9-9-7"
       d="m 133.60792,199.44751 c -0.42466,0.13716 -1.36904,0.25758 -1.77998,0.23788 -0.87305,-0.0419 -1.15358,-0.43233 -1.68292,-0.64217"
       style="display:inline;fill:none;fill-rule:evenodd;stroke:#000000;stroke-width:1.45520818;stroke-linecap:butt;stroke-linejoin:miter;stroke-miterlimit:4;stroke-dasharray:none;stroke-opacity:1" />
    <path
       id="path4272-5-3-0-4-7-8"
       d="m 133.11047,202.74245 c 0,0 -0.59487,0.23896 -0.90469,0.31005 -0.25541,0.0586 -0.77893,0.0942 -0.77893,0.0942"
       style="display:inline;fill:none;fill-rule:evenodd;stroke:#000000;stroke-width:1.45520818;stroke-linecap:butt;stroke-linejoin:miter;stroke-miterlimit:4;stroke-dasharray:none;stroke-opacity:1" />
    <path
       id="path4276-5-3-2-7-1-2"
       d="m 127.42827,203.12655 c -0.53772,0.1484 -1.37897,-0.31484 -1.30099,-0.60643"
       style="display:inline;fill:none;fill-rule:evenodd;stroke:#000000;stroke-width:1.45520818;stroke-linecap:butt;stroke-linejoin:miter;stroke-miterlimit:4;stroke-dasharray:none;stroke-opacity:1" />
    <path
       id="path4280-3-4-9-0-3-0"
       d="m 128.17438,200.80186 c -0.26789,0.0809 -1.92671,0.20972 -2.4489,0.14148 -0.32501,-0.21082 -0.34437,-1.09155 -0.34437,-1.09155"
       style="display:inline;fill:none;fill-rule:evenodd;stroke:#000000;stroke-width:1.45520818;stroke-linecap:butt;stroke-linejoin:miter;stroke-miterlimit:4;stroke-dasharray:none;stroke-opacity:1" />
    <path
       id="path4284-9-8-5-2-1-7"
       d="m 136.59253,203.69255 c -0.34955,0.2881 -0.75492,0.50822 -1.18691,0.64451 -0.33961,0.10714 -0.69545,0.16266 -1.05156,0.16406"
       style="display:inline;fill:none;fill-rule:evenodd;stroke:#000000;stroke-width:1.45520818;stroke-linecap:butt;stroke-linejoin:miter;stroke-miterlimit:4;stroke-dasharray:none;stroke-opacity:1" />
    <path
       id="path4288-0-3-8-6-1-3"
       d="m 103.36377,211.06389 -0.69238,-0.21379 -0.60861,-0.39268"
       style="display:inline;fill:none;fill-rule:evenodd;stroke:#000000;stroke-width:1.45520818;stroke-linecap:butt;stroke-linejoin:miter;stroke-miterlimit:4;stroke-dasharray:none;stroke-opacity:1" />
    <path
       id="path4292-7-0-9-5-0-3"
       d="m 105.48377,209.81748 -0.91835,-0.40426"
       style="display:inline;fill:none;fill-rule:evenodd;stroke:#000000;stroke-width:1.45520818;stroke-linecap:butt;stroke-linejoin:miter;stroke-miterlimit:4;stroke-dasharray:none;stroke-opacity:1" />
    <path
       id="path4296-4-3-3-1-0-0"
       d="m 106.19957,202.6873 c 0,0 0.13069,1.76629 0.0723,2.75119 -0.47879,0.81557 -1.45528,0.84494 -1.45528,0.84494"
       style="display:inline;fill:none;fill-rule:evenodd;stroke:#000000;stroke-width:1.45520818;stroke-linecap:butt;stroke-linejoin:miter;stroke-miterlimit:4;stroke-dasharray:none;stroke-opacity:1" />
    <path
       id="path4300-5-1-8-0-1-6"
       d="m 102.95833,203.14673 -0.0702,-0.0905 -0.69974,-0.24025 -0.379,-0.22956"
       style="display:inline;fill:none;fill-rule:evenodd;stroke:#000000;stroke-width:1.45520818;stroke-linecap:butt;stroke-linejoin:miter;stroke-miterlimit:4;stroke-dasharray:none;stroke-opacity:1" />
    <path
       id="path4304-1-3-0-7-8-6"
       d="m 101.94786,200.19446 c 2.88948,-0.19555 1.13916,-4.10046 0.74984,-4.05138"
       style="display:inline;fill:none;fill-rule:evenodd;stroke:#000000;stroke-width:1.45520818;stroke-linecap:butt;stroke-linejoin:miter;stroke-miterlimit:4;stroke-dasharray:none;stroke-opacity:1" />
    <path
       id="path4269-3-9-4-5-8-5"
       d="m 218.38049,183.48141 c 1.02625,-3.44859 -7.4223,-10.94938 -17.6602,-14.63568 -4.01472,-1.4456 -13.3263,-4.92924 -21.63029,-11.87131 -5.33014,-4.45598 -11.40669,-10.2555 -16.90378,-14.55248 -5.02065,-3.92447 -9.36685,-6.65003 -13.29662,-7.80228 -9.58475,-0.76429 -8.1061,1.89444 -12.77087,1.58939 -3.95497,-3.17884 -4.34783,-5.73558 -8.92488,-5.87683 -6.76484,0.44044 -9.64009,0.59597 -13.98323,1.89422 -2.60139,2.05277 -19.714635,14.51974 -19.549985,17.9333 -0.0895,3.82155 2.7577,3.6861 3.85154,6.46145 -1.09688,1.86168 -3.40569,2.44419 -3.69401,4.08886 -0.27398,2.50775 2.85968,7.66256 4.80478,8.2808 3.985515,0.23312 14.245025,-12.39543 18.066315,-12.69983 2.22862,4.93305 5.38768,7.05078 9.66391,7.13491 3.73741,0.29473 6.19407,-1.4159 10.41496,-1.72341 5.71788,-0.96656 7.19127,0.74348 8.7302,3.77695 -1.83162,10.38188 -2.92438,13.46061 -1.30434,16.73671 1.41647,2.64036 4.33431,1.95611 7.59355,2.98455 3.01995,2.1327 2.86275,4.5065 10.88613,5.48205 2.49735,1.21012 3.71503,1.69308 6.67523,2.90376 7.87617,0.92656 22.36817,-0.21037 25.40474,-4.43213 -0.2877,-1.37854 -8.56683,-2.63005 -8.53855,-3.83354 6.94569,1.03568 32.12318,-0.0764 32.1654,-1.83946 z"
       style="display:inline;fill:#ffffff;fill-opacity:1;fill-rule:evenodd;stroke:#000000;stroke-width:1.45520818;stroke-linecap:butt;stroke-linejoin:miter;stroke-miterlimit:4;stroke-dasharray:none;stroke-opacity:1" />
    <path
       id="path4483-6-9-1-2-5-4"
       d="m 108.57292,206.91951 c 0,0 1.10492,0.69077 1.7018,0.85589 1.61755,0.42142 8.55088,0.0674 8.5874,0.0537"
       style="display:inline;fill:none;fill-rule:evenodd;stroke:#000000;stroke-width:1.45520818;stroke-linecap:butt;stroke-linejoin:miter;stroke-miterlimit:4;stroke-dasharray:none;stroke-opacity:1" />
    <path
       id="path4487-9-4-8-9-8-9"
       d="m 110.26444,207.78627 0.30844,14.3418"
       style="display:inline;fill:none;fill-rule:evenodd;stroke:#000000;stroke-width:1.45520818;stroke-linecap:butt;stroke-linejoin:miter;stroke-miterlimit:4;stroke-dasharray:none;stroke-opacity:1" />
    <path
       id="path4491-8-9-0-9-9-4"
       d="m 125.9954,190.92787 c 0.20895,1.88758 -0.51252,3.28362 -1.59634,4.4882"
       style="display:inline;fill:none;fill-rule:evenodd;stroke:#000000;stroke-width:1.45520818;stroke-linecap:butt;stroke-linejoin:miter;stroke-miterlimit:4;stroke-dasharray:none;stroke-opacity:1" />
    <path
       id="path4495-1-7-6-7-0-2"
       d="m 134.65358,189.29837 c -1.75367,0.70584 -2.22674,2.02673 -2.40803,3.48768"
       style="display:inline;fill:none;fill-rule:evenodd;stroke:#000000;stroke-width:1.45520818;stroke-linecap:butt;stroke-linejoin:miter;stroke-miterlimit:4;stroke-dasharray:none;stroke-opacity:1" />
    <path
       id="path4499-8-1-6-8-8-1"
       d="m 114.38802,250.38977 c 0,0 0.0932,2.22352 1.73618,5.17915 0.70648,0.9847 2.13294,2.48231 2.13294,2.48231 0.60435,1.17351 3.23704,8.24541 5.93469,14.63641 2.48513,5.50108 8.29722,16.86698 8.29722,16.86698"
       style="display:inline;fill:none;fill-rule:evenodd;stroke:#000000;stroke-width:1.45520818;stroke-linecap:butt;stroke-linejoin:miter;stroke-miterlimit:4;stroke-dasharray:none;stroke-opacity:1" />
    <path
       id="path4503-1-9-4-8-2-0"
       d="m 162.24308,274.98747 c 0,0 0.45359,-5.16712 4.91208,-9.01392 4.76055,-3.29963 11.07197,-2.72658 11.07197,-2.72658"
       style="display:inline;fill:none;fill-rule:evenodd;stroke:#000000;stroke-width:1.45520818;stroke-linecap:butt;stroke-linejoin:miter;stroke-miterlimit:4;stroke-dasharray:none;stroke-opacity:1" />
    <path
       id="path4262-4-6-7-7-5-9"
       d="m 168.50169,265.05517 c -0.20771,-1.14438 -0.61474,-2.25231 -1.19727,-3.25899 -0.53082,-0.91732 -1.20694,-1.75036 -1.99542,-2.45855"
       style="display:inline;fill:none;fill-rule:evenodd;stroke:#000000;stroke-width:1.45520818;stroke-linecap:butt;stroke-linejoin:miter;stroke-miterlimit:4;stroke-dasharray:none;stroke-opacity:1" />
    <path
       id="path4266-5-9-7-6-5-3"
       d="m 169.74632,264.65498 c 0,0 0.15613,-4.58462 0.69043,-6.26534 0.37392,-1.87119 2.2317,-3.96894 2.2317,-3.96894"
       style="display:inline;fill:none;fill-rule:evenodd;stroke:#000000;stroke-width:1.45520818;stroke-linecap:butt;stroke-linejoin:miter;stroke-miterlimit:4;stroke-dasharray:none;stroke-opacity:1" />
    <path
       id="path4270-0-5-1-7-2-1"
       d="m 177.61984,257.36512 c 0,0 -1.87353,0.87246 -2.68704,1.5319 -0.74537,0.60421 -1.93965,2.1559 -1.93965,2.1559"
       style="display:inline;fill:none;fill-rule:evenodd;stroke:#000000;stroke-width:1.45520818;stroke-linecap:butt;stroke-linejoin:miter;stroke-miterlimit:4;stroke-dasharray:none;stroke-opacity:1" />
    <path
       id="path4274-1-7-3-8-6-1"
       d="m 170.47686,264.36912 c 0,0 0.77083,-3.06437 1.83816,-4.753 0.96585,-1.73518 3.68143,-4.68093 3.68143,-4.68093"
       style="display:inline;fill:none;fill-rule:evenodd;stroke:#000000;stroke-width:1.45520818;stroke-linecap:butt;stroke-linejoin:miter;stroke-miterlimit:4;stroke-dasharray:none;stroke-opacity:1" />
    <path
       id="path4290-0-8-7-5-8-9"
       d="m 139.15621,238.96669 c 0,0 8.2874,-1.68715 15.45406,-2.79942 2.40592,-0.65811 2.96672,-1.49267 7.16006,-2.65848 3.26884,-4.30849 8.64771,-4.60891 8.64771,-4.60891"
       style="display:inline;fill:none;fill-rule:evenodd;stroke:#000000;stroke-width:1.45520818;stroke-linecap:butt;stroke-linejoin:miter;stroke-miterlimit:4;stroke-dasharray:none;stroke-opacity:1" />
    <path
       id="path4294-3-6-8-8-7-6"
       d="m 201.51613,291.69127 c 0,0 8.90188,-2.72248 -7.68045,-46.45815 -2.13219,-5.4779 -5.15673,-8.32547 -10.10172,-14.87776 -4.70145,-5.35342 -11.12684,-7.61777 -16.98932,-10.51151 -3.75297,-0.53433 -5.91284,-1.50998 -8.41809,-2.66833 -2.93483,-1.82183 -8.21179,-4.75832 -8.69719,-6.06922 -0.72105,-0.70998 -0.23422,-12.83267 -0.23422,-12.83267"
       style="display:inline;fill:none;fill-rule:evenodd;stroke:#000000;stroke-width:1.45520818;stroke-linecap:butt;stroke-linejoin:miter;stroke-miterlimit:4;stroke-dasharray:none;stroke-opacity:1" />
    <path
       id="path4298-6-4-9-7-3-1"
       d="m 144.85633,197.12321 c 0,0 0.94954,0.88208 1.56312,1.01566 0.42367,0.0922 1.29402,-0.18488 1.29402,-0.18488 3.91112,2.53841 6.91255,-4.73363 8.22539,-6.38599 0.21136,-2.00155 0.29707,-2.21313 -0.13005,-3.28185 -0.34456,-1.18042 -1.47435,-2.36863 -2.63655,-2.74176 -0.89961,-0.15087 -2.25362,0.31129 -3.41607,0.87114 -0.7548,0.36347 -1.43848,0.27325 -1.43848,0.27325"
       style="display:inline;fill:none;fill-rule:evenodd;stroke:#000000;stroke-width:1.45520818;stroke-linecap:butt;stroke-linejoin:miter;stroke-miterlimit:4;stroke-dasharray:none;stroke-opacity:1" />
    <path
       id="path4302-0-6-4-0-3-6"
       d="m 151.01809,189.4414 c 1.16657,1.61652 0.54875,4.15491 -0.34437,5.13444"
       style="display:inline;fill:none;fill-rule:evenodd;stroke:#000000;stroke-width:1.45520818;stroke-linecap:butt;stroke-linejoin:miter;stroke-miterlimit:4;stroke-dasharray:none;stroke-opacity:1" />
    <path
       id="path4306-9-5-2-7-2-1"
       d="m 154.34707,187.66253 c 0.24607,3.04868 -0.18691,3.6898 -0.3061,4.85145"
       style="display:inline;fill:none;fill-rule:evenodd;stroke:#000000;stroke-width:1.45520818;stroke-linecap:butt;stroke-linejoin:miter;stroke-miterlimit:4;stroke-dasharray:none;stroke-opacity:1" />
    <path
       id="path4310-5-2-7-0-2-3"
       d="m 153.5818,185.76317 c 0,0 -0.59075,-1.13365 -2.12971,-0.003 -1.45838,2.35918 -2.84463,3.43896 -2.84463,3.43896"
       style="display:inline;fill:none;fill-rule:evenodd;stroke:#000000;stroke-width:1.45520818;stroke-linecap:butt;stroke-linejoin:miter;stroke-miterlimit:4;stroke-dasharray:none;stroke-opacity:1" />
    <path
       id="path4314-7-9-9-7-7-2"
       d="m 148.60746,189.19881 c 0,0 -0.70507,1.10588 -0.57395,1.90017 -1.11193,0.8776 -2.07885,1.43222 -1.76017,2.38528 0.7554,0.15819 2.27813,-0.14833 2.7933,0.52556 1.14252,1.33291 -0.53574,1.41503 -0.53574,1.41503"
       style="display:inline;fill:none;fill-rule:evenodd;stroke:#000000;stroke-width:1.45520818;stroke-linecap:butt;stroke-linejoin:miter;stroke-miterlimit:4;stroke-dasharray:none;stroke-opacity:1" />
    <path
       id="path4282-0-8-4-2-6-8-7"
       d="m 138.86267,227.68401 c 0,0 2.16377,-4.49366 0.83873,-6.71802 -1.00555,-1.61276 -1.56929,-0.25727 -1.56929,-0.25727"
       style="display:inline;fill:none;fill-rule:evenodd;stroke:#000000;stroke-width:1.45520818;stroke-linecap:butt;stroke-linejoin:miter;stroke-miterlimit:4;stroke-dasharray:none;stroke-opacity:1" />
    <path
       id="path4286-5-2-5-2-3-2-0"
       d="m 136.81819,204.03379 c 0,0 1.94189,-1.27762 2.67423,-2.59916 2.12905,-3.10215 1.78356,-6.27501 1.78356,-6.27501"
       style="display:inline;fill:none;fill-rule:evenodd;stroke:#000000;stroke-width:1.45520818;stroke-linecap:butt;stroke-linejoin:miter;stroke-miterlimit:4;stroke-dasharray:none;stroke-opacity:1" />
    <path
       id="path4322-9-2-9-2-8-9-7"
       d="m 107.47674,192.75015 c -0.0265,0.34755 1.37419,2.33042 2.32689,3.08745 3.1194,0.82449 6.49738,0.54314 9.08781,0.23168 3.51779,-1.58302 4.11652,-2.98859 4.17079,-3.27471 -0.92301,-2.13792 -2.92278,-2.9263 -4.78301,-3.51731 -2.27872,-0.35817 -3.87703,-0.59526 -7.34013,0.0739 -1.49862,0.80451 -3.39908,3.13352 -3.46235,3.39898 z"
       style="display:inline;fill:none;fill-rule:evenodd;stroke:#000000;stroke-width:1.45520818;stroke-linecap:butt;stroke-linejoin:miter;stroke-miterlimit:4;stroke-dasharray:none;stroke-opacity:1" />
    <path
       id="path4326-2-5-4-7-2-0-7"
       d="m 103.28292,193.97939 c 0,0 -0.54108,-6.27117 -0.10824,-9.43384 0.38588,-2.81962 2.27277,-8.0617 2.27277,-8.0617 0,0 -0.45958,-5.41867 0,-8.06168 0.24756,-1.42384 1.46109,-4.0594 1.46109,-4.0594"
       style="display:inline;fill:none;fill-rule:evenodd;stroke:#000000;stroke-width:1.45520818;stroke-linecap:butt;stroke-linejoin:miter;stroke-miterlimit:4;stroke-dasharray:none;stroke-opacity:1" />
    <path
       id="path4334-2-8-7-7-3-5-0"
       d="m 122.51531,183.77895 c -1.36217,-1.44867 -2.2497,-2.36203 -3.28413,-3.67905"
       style="display:inline;fill:none;fill-rule:evenodd;stroke:#000000;stroke-width:1.45520818;stroke-linecap:butt;stroke-linejoin:miter;stroke-miterlimit:4;stroke-dasharray:none;stroke-opacity:1" />
    <path
       id="path4338-3-2-7-8-2-2-8"
       d="m 120.94379,181.94984 c -0.16496,1.582 -0.7278,2.92606 -1.54178,3.44137"
       style="display:inline;fill:none;fill-rule:evenodd;stroke:#000000;stroke-width:1.45520818;stroke-linecap:butt;stroke-linejoin:miter;stroke-miterlimit:4;stroke-dasharray:none;stroke-opacity:1" />
    <path
       id="path4342-9-5-6-5-3-2-4"
       d="m 118.02067,183.81243 c -0.76282,-0.67883 -1.42415,-1.13606 -2.43577,-0.31158"
       style="display:inline;fill:none;fill-rule:evenodd;stroke:#000000;stroke-width:1.45520818;stroke-linecap:butt;stroke-linejoin:miter;stroke-miterlimit:4;stroke-dasharray:none;stroke-opacity:1" />
    <path
       id="path4346-8-9-8-3-3-8-9"
       d="m 112.03945,184.37351 c -0.10228,-0.36875 -0.43245,-0.7375 -1.0397,-1.10628"
       style="display:inline;fill:none;fill-rule:evenodd;stroke:#000000;stroke-width:1.45520818;stroke-linecap:butt;stroke-linejoin:miter;stroke-miterlimit:4;stroke-dasharray:none;stroke-opacity:1" />
    <path
       id="path4350-2-3-0-4-5-3-4"
       d="m 110.46022,184.31636 c 0,0 -1.00434,-1.53024 -0.66173,-2.371 0.33517,-1.4035 1.8769,-1.84546 1.8769,-1.84546"
       style="display:inline;fill:none;fill-rule:evenodd;stroke:#000000;stroke-width:1.45520818;stroke-linecap:butt;stroke-linejoin:miter;stroke-miterlimit:4;stroke-dasharray:none;stroke-opacity:1" />
    <path
       id="path4354-3-5-8-5-8-6-8"
       d="m 111.49293,181.53901 c -0.0441,-1.02613 0.0229,-1.39282 0.43911,-2.3918 1.4062,-2.46979 2.13936,-3.95278 2.42863,-5.93494 0.26859,-4.09078 -1.12572,-4.99844 -1.12572,-4.99844"
       style="display:inline;fill:none;fill-rule:evenodd;stroke:#000000;stroke-width:1.45520818;stroke-linecap:butt;stroke-linejoin:miter;stroke-miterlimit:4;stroke-dasharray:none;stroke-opacity:1" />
    <path
       id="path4530-8-8-7-2-9-3"
       d="m 123.08777,173.83745 c 0.5796,-0.0209 1.87119,1.12796 3.50283,1.65566 1.9733,0.23622 2.6013,0.10721 4.24798,0.19761 0.24085,0.23323 0.55581,0.46888 0.10821,1.02918 -0.69142,0.18358 -1.12395,0.5805 -4.39877,-0.004 -1.4108,-0.29628 -1.34415,-0.0811 -3.91443,-1.68935 -0.18409,-0.48455 -0.0873,-1.00579 0.45418,-1.18858 z"
       style="display:inline;fill:#000000;fill-opacity:1;fill-rule:evenodd;stroke:none;stroke-width:1.45520818;stroke-linecap:butt;stroke-linejoin:miter;stroke-miterlimit:4;stroke-dasharray:none;stroke-opacity:1" />
    <path
       id="path4534-2-7-1-3-8-3"
       d="m 111.75675,174.61096 c 0.003,0.48718 -0.59371,2.70082 -6.20768,1.88832 -0.32819,-0.27982 -0.2431,-0.92752 0.0495,-1.24841 2.94609,0.78882 3.58857,-0.26596 6.1582,-0.63991 z"
       style="display:inline;fill:#000000;fill-opacity:1;fill-rule:evenodd;stroke:none;stroke-width:1.45520818;stroke-linecap:butt;stroke-linejoin:miter;stroke-miterlimit:4;stroke-dasharray:none;stroke-opacity:1" />
    <path
       id="path4337-7-5-9-3-5-3"
       d="m 122.55917,170.08757 c 2.41625,-0.289 3.9992,-0.91799 6.46659,-0.6575 1.69499,0.16087 3.0099,0.59411 4.89731,1.31504 0.72441,0.0514 1.49124,0.22892 2.1104,-0.20009 0.42376,-0.31919 0.31779,-1.03102 0,-1.62947 -2.56127,-0.85843 -6.61223,-2.20926 -10.03807,-2.57291 -0.95191,-0.10103 -1.83083,-0.066 -2.868,0.17157 -0.57743,0.26992 -1.07948,0.52109 -1.21759,1.17207 -0.15037,0.70866 0.15736,1.94324 0.64936,2.40129 z"
       style="display:inline;fill:#000000;fill-opacity:1;fill-rule:evenodd;stroke:none;stroke-width:1.45520818;stroke-linecap:butt;stroke-linejoin:miter;stroke-miterlimit:4;stroke-dasharray:none;stroke-opacity:1" />
    <path
       id="path4341-1-8-7-3-1-9"
       d="m 113.24183,168.4336 c -0.0765,0.0808 -0.53303,0.61107 -0.99012,0.79341 -1.61279,0.33542 -2.91648,0.30596 -4.41703,0.48613 -0.86315,0.12661 -1.23218,1.05407 -2.51347,0.78184 -0.1136,-1.06056 0.34829,-2.90948 0.52101,-3.37371 1.48522,-0.6107 3.76112,-0.54777 5.49594,-0.36046 0.74089,0.12935 1.29754,0.19999 1.7793,0.8086 0.15406,0.19465 0.46978,0.49914 0.12437,0.86419 z"
       style="display:inline;fill:#000000;fill-opacity:1;fill-rule:evenodd;stroke:none;stroke-width:1.45520818;stroke-linecap:butt;stroke-linejoin:miter;stroke-miterlimit:4;stroke-dasharray:none;stroke-opacity:1" />
    <path
       id="path4542-4-4-4-6-0-8"
       d="m 121.0593,192.76669 c -2.16701,-1.52513 -3.79177,-1.62036 -5.79015,-1.64375 -2.10307,-0.0248 -4.93864,0.36494 -6.12838,1.5866 1.27243,1.4139 3.86995,1.49436 5.87133,1.51513 2.08912,0.0217 4.43851,-0.06 6.0472,-1.45798 z"
       style="display:inline;fill:#ffffff;fill-opacity:1;fill-rule:evenodd;stroke:#000000;stroke-width:1.45520818;stroke-linecap:butt;stroke-linejoin:miter;stroke-miterlimit:4;stroke-dasharray:none;stroke-opacity:1" />
    <path
       id="path5444-5-0-9"
       d="m 39.050948,291.49279 c 135.987772,2.11003 160.752882,0.69945 162.776362,0.21172"
       style="display:inline;fill:none;stroke:#000000;stroke-width:1.45520818;stroke-linecap:butt;stroke-linejoin:miter;stroke-miterlimit:4;stroke-dasharray:none;stroke-opacity:1" />
    <g
       id="flowRoot6026"
       style="font-style:normal;font-weight:normal;font-size:5.33333349px;line-height:1;font-family:sans-serif;letter-spacing:0px;word-spacing:0px;display:inline;fill:#000000;fill-opacity:1;stroke:none"
       transform="matrix(13.208825,0,0,13.208825,11000.219,-128283.13)"
       aria-label="Tyler's Frame Machine">
      <path
         id="path6038"
         style="font-style:normal;font-variant:normal;font-weight:100;font-stretch:normal;font-size:4.1592555px;line-height:1;font-family:roboto;-inkscape-font-specification:'roboto Thin';letter-spacing:0px"
         d="m -813.62589,9720.529 h -1.07637 v 2.8473 h -0.10967 v -2.8473 h -1.07637 v -0.1097 h 2.26241 z" />
      <path
         id="path6040"
         style="font-style:normal;font-variant:normal;font-weight:100;font-stretch:normal;font-size:4.1592555px;line-height:1;font-family:roboto;-inkscape-font-specification:'roboto Thin';letter-spacing:0px"
         d="m -812.63888,9723.2057 0.0142,-0.041 0.75955,-1.9862 h 0.12186 l -0.98295,2.5792 -0.0487,0.1219 q -0.15841,0.3838 -0.52397,0.3838 -0.11779,0 -0.16247,-0.022 l -0.002,-0.1036 q 0.065,0.018 0.14825,0.018 0.17263,0 0.28636,-0.1016 0.11373,-0.1 0.19699,-0.327 l 0.13404,-0.3635 -0.87531,-2.1852 h 0.11982 z" />
      <path
         id="path6042"
         style="font-style:normal;font-variant:normal;font-weight:100;font-stretch:normal;font-size:4.1592555px;line-height:1;font-family:roboto;-inkscape-font-specification:'roboto Thin';letter-spacing:0px"
         d="m -811.18477,9723.3763 h -0.10967 v -3.1194 h 0.10967 z" />
      <path
         id="path6044"
         style="font-style:normal;font-variant:normal;font-weight:100;font-stretch:normal;font-size:4.1592555px;line-height:1;font-family:roboto;-inkscape-font-specification:'roboto Thin';letter-spacing:0px"
         d="m -809.66973,9723.4169 q -0.26604,0 -0.48944,-0.1421 -0.22137,-0.1442 -0.34728,-0.394 -0.12592,-0.2498 -0.12592,-0.5545 v -0.091 q 0,-0.3046 0.12186,-0.5584 0.12185,-0.2539 0.33509,-0.3961 0.21325,-0.1421 0.46508,-0.1421 0.36759,0 0.60114,0.2619 0.23355,0.262 0.23355,0.6885 v 0.1158 h -1.64705 v 0.1198 q 0,0.2681 0.1117,0.4976 0.11373,0.2274 0.31073,0.3574 0.19902,0.13 0.43054,0.13 0.22137,0 0.37572,-0.073 0.15638,-0.075 0.2762,-0.2295 l 0.0772,0.055 q -0.24574,0.3554 -0.72909,0.3554 z m -0.0406,-2.169 q -0.32088,0 -0.54428,0.2397 -0.2234,0.2376 -0.26199,0.6072 h 1.53129 v -0.026 q 0,-0.2234 -0.0955,-0.4143 -0.0934,-0.1929 -0.25995,-0.2985 -0.16451,-0.1077 -0.36962,-0.1077 z" />
      <path
         id="path6046"
         style="font-style:normal;font-variant:normal;font-weight:100;font-stretch:normal;font-size:4.1592555px;line-height:1;font-family:roboto;-inkscape-font-specification:'roboto Thin';letter-spacing:0px"
         d="m -807.39513,9721.2581 -0.14217,-0.012 q -0.28026,0 -0.46913,0.1828 -0.18887,0.1807 -0.24777,0.5077 v 1.4399 h -0.10967 v -2.1974 h 0.10967 v 0.4569 q 0.0894,-0.2295 0.26808,-0.3635 0.17872,-0.134 0.44882,-0.134 0.0955,0 0.15435,0.022 z" />
      <path
         id="path6048"
         style="font-style:normal;font-variant:normal;font-weight:100;font-stretch:normal;font-size:4.1592555px;line-height:1;font-family:roboto;-inkscape-font-specification:'roboto Thin';letter-spacing:0px"
         d="m -806.88538,9720.6001 -0.0284,0.4975 h -0.10155 l 0.0183,-0.4935 v -0.3472 h 0.1117 z" />
      <path
         id="path6050"
         style="font-style:normal;font-variant:normal;font-weight:100;font-stretch:normal;font-size:4.1592555px;line-height:1;font-family:roboto;-inkscape-font-specification:'roboto Thin';letter-spacing:0px"
         d="m -805.05962,9722.8381 q 0,-0.4001 -0.68237,-0.5443 -0.41024,-0.087 -0.57068,-0.2234 -0.16044,-0.1381 -0.16044,-0.3777 0,-0.2417 0.20309,-0.3981 0.20512,-0.1563 0.53209,-0.1563 0.3554,0 0.57068,0.1706 0.21527,0.1685 0.21527,0.4569 h -0.1117 q 0,-0.2214 -0.18684,-0.3696 -0.18684,-0.1483 -0.48741,-0.1483 -0.28839,0 -0.45695,0.1259 -0.16856,0.126 -0.16856,0.3148 0,0.1483 0.063,0.2336 0.063,0.083 0.20512,0.1523 0.14216,0.067 0.4143,0.13 0.27214,0.063 0.43055,0.1482 0.15841,0.085 0.22949,0.2031 0.0711,0.1158 0.0711,0.2843 0,0.26 -0.21324,0.4184 -0.21324,0.1584 -0.55849,0.1584 -0.36963,0 -0.59708,-0.1665 -0.22543,-0.1686 -0.22543,-0.4326 h 0.10966 q 0.0163,0.2315 0.20309,0.3615 0.18888,0.128 0.50976,0.128 0.29447,0 0.47725,-0.1361 0.18481,-0.1381 0.18481,-0.3331 z" />
      <path
         id="path6052"
         style="font-style:normal;font-variant:normal;font-weight:100;font-stretch:normal;font-size:4.1592555px;line-height:1;font-family:roboto;-inkscape-font-specification:'roboto Thin';letter-spacing:0px"
         d="m -813.96911,9727.2552 h -1.51504 v 1.4541 h -0.10967 v -2.957 h 1.83186 v 0.1097 h -1.72219 v 1.2795 h 1.51504 z" />
      <path
         id="path6054"
         style="font-style:normal;font-variant:normal;font-weight:100;font-stretch:normal;font-size:4.1592555px;line-height:1;font-family:roboto;-inkscape-font-specification:'roboto Thin';letter-spacing:0px"
         d="m -812.3505,9726.5911 -0.14216,-0.012 q -0.28026,0 -0.46913,0.1828 -0.18888,0.1807 -0.24777,0.5077 v 1.4399 h -0.10967 v -2.1974 h 0.10967 v 0.4569 q 0.0894,-0.2294 0.26807,-0.3635 0.17872,-0.134 0.44883,-0.134 0.0955,0 0.15435,0.022 z" />
      <path
         id="path6056"
         style="font-style:normal;font-variant:normal;font-weight:100;font-stretch:normal;font-size:4.1592555px;line-height:1;font-family:roboto;-inkscape-font-specification:'roboto Thin';letter-spacing:0px"
         d="m -810.59175,9728.7093 q -0.0406,-0.1401 -0.0406,-0.4021 -0.12997,0.2112 -0.3554,0.327 -0.22543,0.1157 -0.50975,0.1157 -0.30464,0 -0.49148,-0.1645 -0.18481,-0.1665 -0.18481,-0.4326 0,-0.3026 0.27214,-0.4833 0.27417,-0.1828 0.72706,-0.1868 h 0.54224 v -0.3209 q 0,-0.2762 -0.17465,-0.4285 -0.17263,-0.1524 -0.49554,-0.1524 -0.30057,0 -0.50163,0.1544 -0.20106,0.1543 -0.20106,0.3818 h -0.10966 q 0,-0.268 0.23558,-0.4549 0.23558,-0.1868 0.57677,-0.1868 0.35541,0 0.56459,0.1787 0.20918,0.1767 0.21527,0.4996 v 1.05 q 0,0.3615 0.0569,0.4914 v 0.018 z m -0.90577,-0.067 q 0.30869,0 0.53006,-0.1381 0.22339,-0.1381 0.33509,-0.3879 v -0.5219 h -0.50772 q -0.47116,0 -0.72096,0.1868 -0.20309,0.1523 -0.20309,0.3798 0,0.201 0.16044,0.3412 0.16044,0.1401 0.40618,0.1401 z" />
      <path
         id="path6058"
         style="font-style:normal;font-variant:normal;font-weight:100;font-stretch:normal;font-size:4.1592555px;line-height:1;font-family:roboto;-inkscape-font-specification:'roboto Thin';letter-spacing:0px"
         d="m -808.24608,9728.7093 h -0.10966 v -1.4764 q -0.002,-0.3311 -0.14623,-0.4915 -0.14216,-0.1625 -0.45492,-0.1625 -0.36149,0 -0.59098,0.3189 -0.13607,0.1909 -0.18075,0.4224 v 1.3891 h -0.1117 v -2.1974 h 0.1117 v 0.5199 q 0.1117,-0.2681 0.31885,-0.4143 0.20715,-0.1462 0.45898,-0.1462 0.2762,0 0.45085,0.1218 0.17669,0.1219 0.23152,0.3981 0.0975,-0.2376 0.31682,-0.3778 0.21934,-0.1421 0.49148,-0.1421 0.3554,0 0.52803,0.201 0.17465,0.2011 0.17669,0.6032 v 1.4338 h -0.10967 v -1.4257 q 0,-0.3615 -0.14623,-0.5341 -0.14419,-0.1747 -0.45492,-0.1706 -0.40008,0.01 -0.63363,0.3189 -0.13404,0.1807 -0.14623,0.3493 z" />
      <path
         id="path6060"
         style="font-style:normal;font-variant:normal;font-weight:100;font-stretch:normal;font-size:4.1592555px;line-height:1;font-family:roboto;-inkscape-font-specification:'roboto Thin';letter-spacing:0px"
         d="m -805.29926,9728.7499 q -0.26605,0 -0.48944,-0.1421 -0.22137,-0.1442 -0.34728,-0.394 -0.12592,-0.2498 -0.12592,-0.5545 v -0.091 q 0,-0.3047 0.12185,-0.5585 0.12186,-0.2539 0.3351,-0.3961 0.21324,-0.1421 0.46507,-0.1421 0.36759,0 0.60115,0.262 0.23355,0.2619 0.23355,0.6884 v 0.1158 h -1.64705 v 0.1198 q 0,0.2681 0.1117,0.4976 0.11373,0.2274 0.31072,0.3574 0.19903,0.13 0.43055,0.13 0.22137,0 0.37572,-0.073 0.15637,-0.075 0.2762,-0.2295 l 0.0772,0.055 q -0.24574,0.3554 -0.72909,0.3554 z m -0.0406,-2.169 q -0.32088,0 -0.54427,0.2397 -0.2234,0.2376 -0.26199,0.6072 h 1.53129 v -0.026 q 0,-0.2234 -0.0954,-0.4143 -0.0934,-0.1929 -0.25996,-0.2985 -0.1645,-0.1077 -0.36962,-0.1077 z" />
      <path
         id="path6062"
         style="font-style:normal;font-variant:normal;font-weight:100;font-stretch:normal;font-size:4.1592555px;line-height:1;font-family:roboto;-inkscape-font-specification:'roboto Thin';letter-spacing:0px"
         d="m -815.43744,9731.0853 1.2165,2.7966 1.22056,-2.7966 h 0.16044 v 2.957 h -0.10967 v -2.7945 l -1.22665,2.7945 h -0.0873 l -1.22056,-2.7803 v 2.7803 h -0.10967 v -2.957 z" />
      <path
         id="path6064"
         style="font-style:normal;font-variant:normal;font-weight:100;font-stretch:normal;font-size:4.1592555px;line-height:1;font-family:roboto;-inkscape-font-specification:'roboto Thin';letter-spacing:0px"
         d="m -810.66486,9734.0423 q -0.0406,-0.1401 -0.0406,-0.4021 -0.12998,0.2112 -0.3554,0.327 -0.22543,0.1157 -0.50976,0.1157 -0.30463,0 -0.49147,-0.1645 -0.18481,-0.1665 -0.18481,-0.4325 0,-0.3026 0.27214,-0.4834 0.27417,-0.1828 0.72705,-0.1868 h 0.54225 v -0.3209 q 0,-0.2762 -0.17466,-0.4285 -0.17262,-0.1524 -0.49553,-0.1524 -0.30057,0 -0.50163,0.1544 -0.20106,0.1543 -0.20106,0.3818 h -0.10967 q 0,-0.268 0.23559,-0.4549 0.23558,-0.1868 0.57677,-0.1868 0.3554,0 0.56459,0.1787 0.20918,0.1767 0.21527,0.4996 v 1.05 q 0,0.3615 0.0569,0.4914 v 0.018 z m -0.90578,-0.067 q 0.3087,0 0.53006,-0.1381 0.2234,-0.1381 0.3351,-0.3879 v -0.5219 h -0.50772 q -0.47117,0 -0.72097,0.1868 -0.20308,0.1523 -0.20308,0.3798 0,0.201 0.16044,0.3412 0.16044,0.1401 0.40617,0.1401 z" />
      <path
         id="path6066"
         style="font-style:normal;font-variant:normal;font-weight:100;font-stretch:normal;font-size:4.1592555px;line-height:1;font-family:roboto;-inkscape-font-specification:'roboto Thin';letter-spacing:0px"
         d="m -809.14576,9733.9733 q 0.29854,0 0.49148,-0.1584 0.19496,-0.1585 0.21324,-0.4387 h 0.10967 q -0.0163,0.3188 -0.24574,0.5138 -0.22949,0.1929 -0.56865,0.1929 -0.41227,0 -0.65597,-0.2985 -0.24168,-0.2985 -0.24168,-0.8103 v -0.073 q 0,-0.4996 0.24168,-0.7982 0.2437,-0.2985 0.65191,-0.2985 0.34931,0 0.57677,0.2092 0.22746,0.2091 0.24168,0.5564 h -0.10967 q -0.0142,-0.2965 -0.20918,-0.4752 -0.19294,-0.1808 -0.4996,-0.1808 -0.36759,0 -0.57677,0.2661 -0.20715,0.264 -0.20715,0.7352 v 0.071 q 0,0.461 0.20918,0.725 0.21121,0.262 0.5788,0.262 z" />
      <path
         id="path6068"
         style="font-style:normal;font-variant:normal;font-weight:100;font-stretch:normal;font-size:4.1592555px;line-height:1;font-family:roboto;-inkscape-font-specification:'roboto Thin';letter-spacing:0px"
         d="m -807.6693,9732.3567 q 0.10763,-0.2559 0.31681,-0.4042 0.20919,-0.1482 0.46305,-0.1482 0.35337,0 0.52397,0.201 0.17262,0.1991 0.17465,0.6032 v 1.4338 h -0.10967 v -1.4378 q -0.002,-0.3534 -0.14419,-0.522 -0.14216,-0.1706 -0.45086,-0.1706 -0.28432,0 -0.4935,0.2031 -0.20715,0.2011 -0.28026,0.5199 v 1.4074 h -0.10967 v -3.1194 h 0.10967 z" />
      <path
         id="path6070"
         style="font-style:normal;font-variant:normal;font-weight:100;font-stretch:normal;font-size:4.1592555px;line-height:1;font-family:roboto;-inkscape-font-specification:'roboto Thin';letter-spacing:0px"
         d="m -805.36831,9734.0423 h -0.10967 v -2.1974 h 0.10967 z m -0.16653,-2.8838 q 0,-0.047 0.0325,-0.079 0.0325,-0.035 0.0792,-0.035 0.0467,0 0.0792,0.035 0.0345,0.032 0.0345,0.079 0,0.047 -0.0345,0.079 -0.0325,0.033 -0.0792,0.033 -0.0467,0 -0.0792,-0.033 -0.0325,-0.032 -0.0325,-0.079 z" />
      <path
         id="path6072"
         style="font-style:normal;font-variant:normal;font-weight:100;font-stretch:normal;font-size:4.1592555px;line-height:1;font-family:roboto;-inkscape-font-specification:'roboto Thin';letter-spacing:0px"
         d="m -804.53362,9732.3567 q 0.10764,-0.2559 0.31682,-0.4042 0.20918,-0.1482 0.46305,-0.1482 0.35337,0 0.52396,0.201 0.17263,0.1991 0.17466,0.6032 v 1.4338 h -0.10967 v -1.4378 q -0.002,-0.3534 -0.14419,-0.522 -0.14216,-0.1706 -0.45086,-0.1706 -0.28432,0 -0.4935,0.2031 -0.20715,0.2011 -0.28027,0.5199 v 1.4074 h -0.10966 v -2.1974 h 0.10966 z" />
      <path
         id="path6074"
         style="font-style:normal;font-variant:normal;font-weight:100;font-stretch:normal;font-size:4.1592555px;line-height:1;font-family:roboto;-inkscape-font-specification:'roboto Thin';letter-spacing:0px"
         d="m -801.57868,9734.0829 q -0.26604,0 -0.48944,-0.1421 -0.22137,-0.1442 -0.34728,-0.394 -0.12592,-0.2498 -0.12592,-0.5545 v -0.091 q 0,-0.3047 0.12186,-0.5585 0.12185,-0.2539 0.33509,-0.3961 0.21325,-0.1421 0.46508,-0.1421 0.36759,0 0.60114,0.262 0.23355,0.2619 0.23355,0.6884 v 0.1158 h -1.64705 v 0.1198 q 0,0.2681 0.1117,0.4976 0.11373,0.2274 0.31073,0.3574 0.19902,0.13 0.43054,0.13 0.22137,0 0.37572,-0.073 0.15638,-0.075 0.2762,-0.2295 l 0.0772,0.055 q -0.24573,0.3554 -0.72909,0.3554 z m -0.0406,-2.169 q -0.32088,0 -0.54428,0.2397 -0.2234,0.2376 -0.26198,0.6072 h 1.53128 v -0.026 q 0,-0.2234 -0.0955,-0.4143 -0.0934,-0.1929 -0.25995,-0.2985 -0.1645,-0.1077 -0.36962,-0.1077 z" />
    </g>
  </g>
</svg>
